<?xml version="1.0"?>
<svg xmlns="http://www.w3.org/2000/svg" viewBox="0 0 80 80">
    <path d="M 9 18 C 7.3550302 18 6 19.35503 6 21 L 6 59 C 6 60.64497 7.3550302 62 9 62 L 27 62 C 27.776965 62 28.464634 61.65838 29 61.166016 C 29.535366 61.65838 30.223035 62 31 62 L 49 62 C 49.776965 62 50.464634 61.65838 51 61.166016 C 51.535366 61.65838 52.223035 62 53 62 L 71 62 C 72.64497 62 74 60.64497 74 59 L 74 21 C 74 19.35503 72.64497 18 71 18 L 53 18 C 52.223035 18 51.535366 18.34162 51 18.833984 C 50.464634 18.34162 49.776965 18 49 18 L 31 18 C 30.223035 18 29.535366 18.34162 29 18.833984 C 28.464634 18.34162 27.776965 18 27 18 L 9 18 z M 9 20 L 27 20 C 27.56503 20 28 20.43497 28 21 L 30 21 C 30 20.43497 30.43497 20 31 20 L 49 20 C 49.56503 20 50 20.43497 50 21 L 52 21 C 52 20.43497 52.43497 20 53 20 L 56.158203 20 C 56.326562 20.97502 56.60087 21.843429 56.984375 22.597656 C 58.086375 24.859656 60.031062 26.101563 62.539062 26.101562 C 66.125063 26.101562 68.667969 23.640313 68.667969 20.195312 C 68.667969 20.128747 68.660195 20.065738 68.658203 20 L 71 20 C 71.56503 20 72 20.43497 72 21 L 72 59 C 72 59.56503 71.56503 60 71 60 L 53 60 C 52.43497 60 52 59.56503 52 59 L 50 59 C 50 59.56503 49.56503 60 49 60 L 31 60 C 30.43497 60 30 59.56503 30 59 L 28 59 C 28 59.56503 27.56503 60 27 60 L 9 60 C 8.4349698 60 8 59.56503 8 59 L 8 21 C 8 20.43497 8.4349698 20 9 20 z M 58.986328 20 L 66.041016 20 C 66.048013 20.092633 66.066406 20.17972 66.066406 20.275391 C 66.066406 22.267391 64.531625 23.792969 62.515625 23.792969 C 60.499625 23.792969 58.964844 22.245469 58.964844 20.230469 C 58.964844 20.150709 58.981046 20.077623 58.986328 20 z M 29 23 A 1 1 0 0 0 28 24 A 1 1 0 0 0 29 25 A 1 1 0 0 0 30 24 A 1 1 0 0 0 29 23 z M 51 23 A 1 1 0 0 0 50 24 A 1 1 0 0 0 51 25 A 1 1 0 0 0 52 24 A 1 1 0 0 0 51 23 z M 29 27 A 1 1 0 0 0 28 28 A 1 1 0 0 0 29 29 A 1 1 0 0 0 30 28 A 1 1 0 0 0 29 27 z M 51 27 A 1 1 0 0 0 50 28 A 1 1 0 0 0 51 29 A 1 1 0 0 0 52 28 A 1 1 0 0 0 51 27 z M 29 31 A 1 1 0 0 0 28 32 A 1 1 0 0 0 29 33 A 1 1 0 0 0 30 32 A 1 1 0 0 0 29 31 z M 51 31 A 1 1 0 0 0 50 32 A 1 1 0 0 0 51 33 A 1 1 0 0 0 52 32 A 1 1 0 0 0 51 31 z M 18.011719 31.369141 C 14.085719 31.369141 11.753906 34.62875 11.753906 40.21875 C 11.753906 45.84375 14.061719 49.100609 18.011719 49.099609 C 21.948719 49.099609 24.246094 45.853234 24.246094 40.240234 C 24.246094 34.639234 21.913719 31.369141 18.011719 31.369141 z M 40.011719 31.369141 C 36.085719 31.369141 33.753906 34.62875 33.753906 40.21875 C 33.753906 45.84375 36.061719 49.100609 40.011719 49.099609 C 43.948719 49.099609 46.246094 45.853234 46.246094 40.240234 C 46.246094 34.639234 43.913719 31.369141 40.011719 31.369141 z M 18.011719 33.667969 C 20.285719 33.667969 21.597656 35.97675 21.597656 40.21875 C 21.597656 44.50775 20.308719 46.804688 18.011719 46.804688 C 15.714719 46.804688 14.402344 44.49575 14.402344 40.21875 C 14.402344 35.98775 15.737719 33.667969 18.011719 33.667969 z M 40.011719 33.667969 C 42.285719 33.667969 43.597656 35.97675 43.597656 40.21875 C 43.597656 44.50775 42.308719 46.804688 40.011719 46.804688 C 37.714719 46.804688 36.402344 44.49575 36.402344 40.21875 C 36.402344 35.98775 37.737719 33.667969 40.011719 33.667969 z M 29 35 A 1 1 0 0 0 28 36 A 1 1 0 0 0 29 37 A 1 1 0 0 0 30 36 A 1 1 0 0 0 29 35 z M 51 35 A 1 1 0 0 0 50 36 A 1 1 0 0 0 51 37 A 1 1 0 0 0 52 36 A 1 1 0 0 0 51 35 z M 56.386719 37.779297 L 56.386719 40.113281 L 64.988281 40.113281 L 64.988281 40.3125 L 57.5 54.689453 L 60.253906 54.689453 L 67.613281 40.158203 L 67.613281 37.779297 L 56.386719 37.779297 z M 29 39 A 1 1 0 0 0 28 40 A 1 1 0 0 0 29 41 A 1 1 0 0 0 30 40 A 1 1 0 0 0 29 39 z M 51 39 A 1 1 0 0 0 50 40 A 1 1 0 0 0 51 41 A 1 1 0 0 0 52 40 A 1 1 0 0 0 51 39 z M 29 43 A 1 1 0 0 0 28 44 A 1 1 0 0 0 29 45 A 1 1 0 0 0 30 44 A 1 1 0 0 0 29 43 z M 51 43 A 1 1 0 0 0 50 44 A 1 1 0 0 0 51 45 A 1 1 0 0 0 52 44 A 1 1 0 0 0 51 43 z M 29 47 A 1 1 0 0 0 28 48 A 1 1 0 0 0 29 49 A 1 1 0 0 0 30 48 A 1 1 0 0 0 29 47 z M 51 47 A 1 1 0 0 0 50 48 A 1 1 0 0 0 51 49 A 1 1 0 0 0 52 48 A 1 1 0 0 0 51 47 z M 29 51 A 1 1 0 0 0 28 52 A 1 1 0 0 0 29 53 A 1 1 0 0 0 30 52 A 1 1 0 0 0 29 51 z M 51 51 A 1 1 0 0 0 50 52 A 1 1 0 0 0 51 53 A 1 1 0 0 0 52 52 A 1 1 0 0 0 51 51 z M 29 55 A 1 1 0 0 0 28 56 A 1 1 0 0 0 29 57 A 1 1 0 0 0 30 56 A 1 1 0 0 0 29 55 z M 51 55 A 1 1 0 0 0 50 56 A 1 1 0 0 0 51 57 A 1 1 0 0 0 52 56 A 1 1 0 0 0 51 55 z"/>
</svg>
